<?xml version="1.0" encoding="UTF-8"?>
<!DOCTYPE svg PUBLIC "-//W3C//DTD SVG 1.1//EN" "http://www.w3.org/Graphics/SVG/1.1/DTD/svg11.dtd">
<!-- Creator: CorelDRAW 2021 (64-Bit) -->
<svg xmlns="http://www.w3.org/2000/svg" xml:space="preserve" width="586px" height="681px" version="1.1" style="shape-rendering:geometricPrecision; text-rendering:geometricPrecision; image-rendering:optimizeQuality; fill-rule:evenodd; clip-rule:evenodd"
viewBox="0 0 586 681.47"
 xmlns:xlink="http://www.w3.org/1999/xlink"
 xmlns:xodm="http://www.corel.com/coreldraw/odm/2003">
 <defs>
  <style type="text/css">
   <![CDATA[
    .fil1 {fill:#001818}
    .fil12 {fill:#022223}
    .fil0 {fill:#103232}
    .fil3 {fill:#1B4343}
    .fil9 {fill:#299ED4}
    .fil6 {fill:#305254}
    .fil2 {fill:#326665}
    .fil8 {fill:#59CAF9}
    .fil4 {fill:#5A8B8B}
    .fil7 {fill:#5CE5A3}
    .fil5 {fill:#77FFB9}
    .fil11 {fill:#89B8B7}
    .fil10 {fill:#A7D5D4}
    .fil14 {fill:#B4E3E3}
    .fil13 {fill:#F0FDFA}
   ]]>
  </style>
 </defs>
 <g id="Capa_x0020_1">
  <metadata id="CorelCorpID_0Corel-Layer"/>
  <g id="_2811490595296">
   <path class="fil0" d="M310.75 471.01c20.95,-58.09 14.14,-52.33 57.57,-83.01 8.53,-6.03 32.71,-6.16 46.98,-3.51 10.3,1.92 19.3,22.89 27.85,31.81 -22.41,59.15 -13.31,50.69 -57.59,82.88 -7.75,5.64 -33.74,6.58 -47.05,3.79 -9.75,-2.04 -21.59,-24.69 -27.76,-31.96zm-12.22 -152.38c-5.25,14.11 -20.88,56.19 -21.72,68.75 3.49,7.01 17.51,25.66 22.3,30.42 -5.34,14.24 -10.23,34.28 -16.11,47.19 -8.93,19.63 -41.2,21.57 -52.62,57.06 -5.25,16.31 -10.99,32.45 -16.38,48.7 16.43,1.86 36.19,0.13 54.01,0.42 24.43,0.4 19.04,-1.68 42.59,-19.57 7.67,-5.83 9.92,-10.43 20.69,-11.01 53.35,-2.88 36.02,2.54 60.06,31.32l63.65 0.21 24.32 -71.49 -22.16 -30.61c5.43,-14.16 10.5,-33.79 16.51,-46.77 9.17,-19.81 40.53,-22.06 51.23,-52.96 5.15,-14.87 12.64,-32.94 16.26,-47.78 -8.69,-1.03 -63.88,-2.28 -69.37,0.24 -4.64,2.12 -20.14,15.36 -25.26,19.37 -12.28,9.6 -11.71,12.51 -30.58,12.1 -44.15,-0.97 -25.52,3.58 -49.89,-29.48 -7.16,-9.72 -15.54,-6.28 -31.04,-6.58 -11.38,-0.22 -26.37,-2.31 -36.49,0.47z"/>
   <path class="fil1" d="M145.07 425.15c-25,-30.65 -24.56,-13.49 -30.72,-57.09 -2.6,-18.4 0.18,-58.26 16.94,-73.51 47.26,-43.03 70.99,42.06 60.21,74.89 -10.8,32.89 -10.18,44.07 -46.43,55.71zm-38.98 -194.61c-3.46,13.91 5.25,29.74 4.9,44.66 -0.17,7.16 -13.35,47.29 -17.63,52.55 -3.81,4.69 -13.3,7.93 -19.09,10.11 -11.91,4.49 -9.58,2.9 -13.93,16 -5.98,18.01 -13.4,36.57 -18.49,54.63 4.91,8.79 30.49,34.26 38.78,43.06 9.91,-2.23 18.02,-9.88 28.08,-12.63 36.02,42.1 22.32,7.56 31.66,63.03 3.84,22.83 1.8,15.97 16.56,31.76 8.69,9.28 15.7,18.13 24.93,27.06 4.73,-14.8 23.45,-66.8 23.82,-78.06 0.6,-18.53 -11.84,-39.3 -5.93,-59.23 2.45,-8.25 9.85,-33.21 13.2,-39.65 4.07,-7.82 15.94,-11.2 23.56,-14.99 12.89,-6.42 10.55,-10.05 16.52,-27.97 4.09,-12.28 8.01,-24.7 12.32,-36.89 -6.96,-9.39 -30.43,-32.17 -40.59,-41.16 -8.74,4.24 -19.61,11.2 -28.38,14.29 -28.01,-25.34 -26.06,-19.89 -32.56,-58.23 -3.38,-19.97 1.91,-15.56 -13.13,-30.05 -6.72,-6.48 -19.15,-16.44 -22.02,-23.05l-22.58 64.76z"/>
   <path class="fil2" d="M462.84 463.82c23.48,47.8 31.58,4.95 -5.58,112.81 -12.07,-1.2 -64.25,0.75 -69.62,-1.49 -6.62,-2.76 -13.01,-18.04 -18.33,-24.72 -7.02,-8.83 -19.52,-5.54 -32.64,-5.63 -15.15,-0.1 -16.65,4.74 -28.06,13.57 -7.66,5.92 -15.36,15.74 -26.46,16.91 -19.6,2.07 -51.93,-0.31 -73.13,-0.74 5.73,-15.58 10.64,-31.51 15.97,-47.25 8.33,-24.59 4.22,-22.8 21.94,-36.65 34.26,-26.77 30.09,-16.42 46.36,-66.56 -0.57,-12.94 -26.55,-21.16 -18.66,-45.59 7,-21.68 14.85,-43.22 21.73,-64.96l70.75 1.3 20.23 33.99c42.02,7.41 46.39,-1.48 74.6,-25.02 13.57,-11.32 9.71,-6.5 40.57,-6.3 12.58,0.08 32.39,-0.16 44.31,1.47 -18.82,44.39 -12.31,60.09 -37.33,79.14 -32.11,24.43 -30.87,18.22 -46.65,65.72zm-174.5 -169.57l-97.5 301.36 279.73 -3.44 94.85 -296.51 -277.08 -1.41z"/>
   <path class="fil3" d="M106.09 230.54l22.58 -64.76c-4.95,-6.56 -7.25,4.61 -3.6,-7.28 6.67,4.65 37.85,32.95 40.28,42.15 11.14,42.13 -5.38,34.81 18.21,58.9 5.46,5.57 6.92,7.81 13.35,11.94l27 -14.58c10.61,6.8 38.46,34.11 44.33,44.24 0.01,0 -15.27,65.52 -27.6,72.52 -6.69,3.8 -21.65,8.63 -26.01,15.27 -2.36,3.59 -11.7,32.67 -12.47,37.57 -2.52,16.07 10.74,45.02 6.43,62.58 -6.13,24.97 -18.62,52.41 -25.4,77.9l-40.31 -41.89c-15.17,-18.29 8.75,-41.82 -34.66,-80.2l-25.28 13.91c-15.84,-12.73 -29.5,-33.62 -45.66,-46.88 3.8,-13.43 19.61,-62.98 25.51,-73.06 4.25,-7.25 16.66,-11.12 23.82,-14.73 11.39,-5.73 10.68,-13.53 15.96,-28.39 9.12,-25.61 0.38,-36.6 -1.51,-60.9 -0.89,-11.42 6.15,-25.01 10.16,-36.39l14.01 -33.6c-3.34,9.82 -25.51,60.66 -19.14,65.68zm84.75 365.07l97.5 -301.36 -170.39 -168.1 -95.26 287.91 168.15 181.55z"/>
   <path class="fil4" d="M418.18 200.83l1.09 7.68c10.38,15.64 34.81,22.77 60.62,32.54 19.09,7.22 28.51,30.2 47.73,39.83 -34.63,-7.34 -31.37,7.97 -85.38,-10.24l-29.17 -7.75c-0.63,0.01 -1.46,0.16 -1.97,0.19 -0.5,0.02 -1.35,-0.03 -1.96,0.24 -2.08,1.51 -0.13,1.81 -5.82,2.46 -4.62,0.52 -16.36,-1.7 -26.25,0.32l-10.36 15.85 -7.32 -2.21c-15.64,-8.42 -43.86,0.08 -60.26,-2.99 -7.23,-1.36 -30.1,-25.59 -40.23,-34.44l11.5 -20.7c-24.03,-17.55 -21.24,-24.84 -61.33,-39.56 -36.07,-13.23 -33.19,-26.22 -55.71,-41.11 13.44,5.44 35.96,0.8 51.01,1.52 18.92,0.91 39.1,15.24 58.34,18.37l10.37 -23.07c14.48,-18.49 87.76,-6.98 99.03,2.12 14.4,11.63 74.06,29.7 46.07,60.95zm-300.23 -74.68l170.39 168.1 277.08 1.41c-3.74,-8.2 -72.9,-74.72 -87.34,-88.66 -17.26,-16.66 -78.75,-84.29 -94.26,-85.33 -82.53,-5.52 -184.29,11.28 -265.87,4.48z"/>
   <path class="fil5" d="M310.75 471.01c6.17,7.27 18.01,29.92 27.76,31.96 13.31,2.79 39.3,1.85 47.05,-3.79 44.28,-32.19 35.18,-23.73 57.59,-82.88 -8.55,-8.92 -17.55,-29.89 -27.85,-31.81 -14.27,-2.65 -38.45,-2.52 -46.98,3.51 -43.43,30.68 -36.62,24.92 -57.57,83.01z"/>
   <path class="fil6" d="M408.96 232.49l6.89 -12.3c1.34,8.33 11.41,16.18 -4.27,27.57 -33.95,24.65 -162.18,-21.01 -166.32,-58.02 -1.33,-11.96 6.12,-20.73 16.32,-19.67l1.13 -9.24c-19.24,-3.13 -39.42,-17.46 -58.34,-18.37 -15.05,-0.72 -37.57,3.92 -51.01,-1.52 22.52,14.89 19.64,27.88 55.71,41.11 40.09,14.72 37.3,22.01 61.33,39.56l-11.5 20.7c10.13,8.85 33,33.08 40.23,34.44 16.4,3.07 44.62,-5.43 60.26,2.99 5.89,-5.12 6.98,-11.08 13.25,-16.89l36.5 0.47c0.61,-0.27 1.46,-0.22 1.96,-0.24 0.51,-0.03 1.34,-0.18 1.97,-0.19l29.17 7.75c54.01,18.21 50.75,2.9 85.38,10.24 -19.22,-9.63 -28.64,-32.61 -47.73,-39.83 -25.81,-9.77 -50.24,-16.9 -60.62,-32.54l-10.31 23.98z"/>
   <path class="fil7" d="M145.07 425.15c36.25,-11.64 35.63,-22.82 46.43,-55.71 10.78,-32.83 -12.95,-117.92 -60.21,-74.89 -16.76,15.25 -19.54,55.11 -16.94,73.51 6.16,43.6 5.72,26.44 30.72,57.09z"/>
   <path class="fil8" d="M383.61 167.2c-21.2,-17.49 -16.66,-6.99 -15.23,-16.5 9.69,0.32 40.01,14.81 35.68,29.84 -8.34,-2.38 -13.86,-7.91 -20.45,-13.34zm-110.53 -29.44c-12.21,29.2 26.63,50.38 53.87,59.88 19.21,6.71 34.19,10.18 50.96,12.07 22.73,2.55 26.07,-5.36 40.27,-8.88 27.99,-31.25 -31.67,-49.32 -46.07,-60.95 -11.27,-9.1 -84.55,-20.61 -99.03,-2.12z"/>
   <path class="fil9" d="M262.71 160.83l-1.13 9.24c-9.49,29.17 28.62,49.98 56.74,60.87 33.04,12.78 67.48,16.82 90.64,1.55l10.31 -23.98 -1.09 -7.68c-14.2,3.52 -17.54,11.43 -40.27,8.88 -16.77,-1.89 -31.75,-5.36 -50.96,-12.07 -27.24,-9.5 -66.08,-30.68 -53.87,-59.88l-10.37 23.07z"/>
   <path class="fil10" d="M298.53 318.63c10.12,-2.78 25.11,-0.69 36.49,-0.47 15.5,0.3 23.88,-3.14 31.04,6.58 24.37,33.06 5.74,28.51 49.89,29.48 18.87,0.41 18.3,-2.5 30.58,-12.1 5.12,-4.01 20.62,-17.25 25.26,-19.37 5.49,-2.52 60.68,-1.27 69.37,-0.24 -3.62,14.84 -11.11,32.91 -16.26,47.78 -10.7,30.9 -42.06,33.15 -51.23,52.96 -6.01,12.98 -11.08,32.61 -16.51,46.77l22.16 30.61 -24.32 71.49 -63.65 -0.21c-24.04,-28.78 -6.71,-34.2 -60.06,-31.32 -10.77,0.58 -13.02,5.18 -20.69,11.01 -23.55,17.89 -18.16,19.97 -42.59,19.57 -17.82,-0.29 -37.58,1.44 -54.01,-0.42 5.39,-16.25 11.13,-32.39 16.38,-48.7 11.42,-35.49 43.69,-37.43 52.62,-57.06 5.88,-12.91 10.77,-32.95 16.11,-47.19 -4.79,-4.76 -18.81,-23.41 -22.3,-30.42 0.84,-12.56 16.47,-54.64 21.72,-68.75zm164.31 145.19c15.78,-47.5 14.54,-41.29 46.65,-65.72 25.02,-19.05 18.51,-34.75 37.33,-79.14 -11.92,-1.63 -31.73,-1.39 -44.31,-1.47 -30.86,-0.2 -27,-5.02 -40.57,6.3 -28.21,23.54 -32.58,32.43 -74.6,25.02l-20.23 -33.99 -70.75 -1.3c-6.88,21.74 -14.73,43.28 -21.73,64.96 -7.89,24.43 18.09,32.65 18.66,45.59 -16.27,50.14 -12.1,39.79 -46.36,66.56 -17.72,13.85 -13.61,12.06 -21.94,36.65 -5.33,15.74 -10.24,31.67 -15.97,47.25 21.2,0.43 53.53,2.81 73.13,0.74 11.1,-1.17 18.8,-10.99 26.46,-16.91 11.41,-8.83 12.91,-13.67 28.06,-13.57 13.12,0.09 25.62,-3.2 32.64,5.63 5.32,6.68 11.71,21.96 18.33,24.72 5.37,2.24 57.55,0.29 69.62,1.49 37.16,-107.86 29.06,-65.01 5.58,-112.81z"/>
   <path class="fil11" d="M128.67 165.78c2.87,6.61 15.3,16.57 22.02,23.05 15.04,14.49 9.75,10.08 13.13,30.05 6.5,38.34 4.55,32.89 32.56,58.23 8.77,-3.09 19.64,-10.05 28.38,-14.29 10.16,8.99 33.63,31.77 40.59,41.16 -4.31,12.19 -8.23,24.61 -12.32,36.89 -5.97,17.92 -3.63,21.55 -16.52,27.97 -7.62,3.79 -19.49,7.17 -23.56,14.99 -3.35,6.44 -10.75,31.4 -13.2,39.65 -5.91,19.93 6.53,40.7 5.93,59.23 -0.37,11.26 -19.09,63.26 -23.82,78.06 -9.23,-8.93 -16.24,-17.78 -24.93,-27.06 -14.76,-15.79 -12.72,-8.93 -16.56,-31.76 -9.34,-55.47 4.36,-20.93 -31.66,-63.03 -10.06,2.75 -18.17,10.4 -28.08,12.63 -8.29,-8.8 -33.87,-34.27 -38.78,-43.06 5.09,-18.06 12.51,-36.62 18.49,-54.63 4.35,-13.1 2.02,-11.51 13.93,-16 5.79,-2.18 15.28,-5.42 19.09,-10.11 4.28,-5.26 17.46,-45.39 17.63,-52.55 0.35,-14.92 -8.36,-30.75 -4.9,-44.66 -6.37,-5.02 15.8,-55.86 19.14,-65.68l-14.01 33.6c-4.01,11.38 -11.05,24.97 -10.16,36.39 1.89,24.3 10.63,35.29 1.51,60.9 -5.28,14.86 -4.57,22.66 -15.96,28.39 -7.16,3.61 -19.57,7.48 -23.82,14.73 -5.9,10.08 -21.71,59.63 -25.51,73.06 16.16,13.26 29.82,34.15 45.66,46.88l25.28 -13.91c43.41,38.38 19.49,61.91 34.66,80.2l40.31 41.89c6.78,-25.49 19.27,-52.93 25.4,-77.9 4.31,-17.56 -8.95,-46.51 -6.43,-62.58 0.77,-4.9 10.11,-33.98 12.47,-37.57 4.36,-6.64 19.32,-11.47 26.01,-15.27 12.33,-7 27.61,-72.52 27.6,-72.52 -5.87,-10.13 -33.72,-37.44 -44.33,-44.24l-27 14.58c-6.43,-4.13 -7.89,-6.37 -13.35,-11.94 -23.59,-24.09 -7.07,-16.77 -18.21,-58.9 -2.43,-9.2 -33.61,-37.5 -40.28,-42.15 -3.65,11.89 -1.35,0.72 3.6,7.28z"/>
   <path class="fil12" d="M408.96 232.49c-23.16,15.27 -57.6,11.23 -90.64,-1.55 -28.12,-10.89 -66.23,-31.7 -56.74,-60.87 -10.2,-1.06 -17.65,7.71 -16.32,19.67 4.14,37.01 132.37,82.67 166.32,58.02 15.68,-11.39 5.61,-19.24 4.27,-27.57l-6.89 12.3z"/>
   <path class="fil13" d="M368.38 150.7c-1.43,9.51 -5.97,-0.99 15.23,16.5 6.59,5.43 12.11,10.96 20.45,13.34 4.33,-15.03 -25.99,-29.52 -35.68,-29.84z"/>
   <path class="fil14" d="M359.39 279.74l7.32 2.21 10.36 -15.85c9.89,-2.02 21.63,0.2 26.25,-0.32 5.69,-0.65 3.74,-0.95 5.82,-2.46l-36.5 -0.47c-6.27,5.81 -7.36,11.77 -13.25,16.89z"/>
  </g>
 </g>
</svg>
