<?xml version="1.0" encoding="UTF-8"?>
<!DOCTYPE svg PUBLIC "-//W3C//DTD SVG 1.1//EN" "http://www.w3.org/Graphics/SVG/1.1/DTD/svg11.dtd">
<!-- Creator: CorelDRAW 2021 (64-Bit) -->
<svg xmlns="http://www.w3.org/2000/svg" xml:space="preserve" width="586px" height="681px" version="1.1" style="shape-rendering:geometricPrecision; text-rendering:geometricPrecision; image-rendering:optimizeQuality; fill-rule:evenodd; clip-rule:evenodd"
viewBox="0 0 586 681.47"
 xmlns:xlink="http://www.w3.org/1999/xlink"
 xmlns:xodm="http://www.corel.com/coreldraw/odm/2003">
 <defs>
   <style >
   @keyframes float {
        0% {
            transform: translatey(10px);
        }
        50% {
            transform: translatey(-120px);
        }
        100% {
            transform: translatey(10px);
        }
    }
    .object{
        transform: translatey(0px);
	    animation: float 5s ease-in-out infinite;
    }
  </style>
  <style type="text/css">
   <![CDATA[
    .fil16 {fill:#1C2A30}
    .fil17 {fill:#263339}
    .fil7 {fill:#42525A}
    .fil11 {fill:#475963}
    .fil12 {fill:#4E616A}
    .fil15 {fill:#515E67}
    .fil9 {fill:#51626A}
    .fil18 {fill:#7394A8}
    .fil5 {fill:#8B9CA3}
    .fil1 {fill:#8DD4DB}
    .fil2 {fill:#9DB1B5}
    .fil14 {fill:#A0B1B5}
    .fil6 {fill:#B3D4E3}
    .fil0 {fill:#B4C9D0}
    .fil3 {fill:#BACED5}
    .fil13 {fill:#D3E4E5}
    .fil8 {fill:#D4E2E3}
    .fil4 {fill:#DAEDF1}
    .fil10 {fill:#DBE8EA}
   ]]>
  </style>
 </defs>
 <g id="Capa_x0020_1">
  <metadata id="CorelCorpID_0Corel-Layer"/>
  <g id="_2811455881920" class="object">
   <path class="fil0" d="M294.55 216.25c-2.03,1.36 -29.8,4.3 -36.29,5.79 -12.05,2.75 -23.85,6.06 -34.65,9.57 -19.06,6.19 -50.02,22.92 -63.02,26.02 -5.7,6.74 -16.57,4.43 -22.37,10.49l-12.92 44.67c12.35,15.09 7.79,28.11 3.07,51.67l4.15 2.13c7.97,4.24 5.8,3.31 10.98,9.46 8.82,10.47 4.92,9.37 9.78,17.84 18.42,0.34 25.38,4.93 30.51,21.53 18.72,4.24 12.27,7.09 26,20l20.51 -8.86c1.18,-8.91 14.97,-33.79 24.28,-37.93 0.37,-10.65 55.57,-60.84 66.4,-61.25 2.73,-7.66 24.05,-21.89 31.79,-17.57 1.67,-11.41 32.21,-18.98 43.66,-23.96 8.71,-3.78 14.88,-6.35 22.68,-10.19 7.62,-3.76 23.44,-6.04 28.59,-9.63 -14.25,-10.41 -39.37,-25.22 -55.01,-31.85 -5.03,-2.14 -8.1,-3.86 -13.79,-6.69 -20.77,-10.33 -46.65,-6.09 -51.53,-12.56l-32.82 1.32z"/>
   <path class="fil1" d="M252.36 384.65c17.5,33.21 77.17,92.28 110.91,109.28l54.83 -85.47c-8.45,-13.84 -78.38,-76.75 -100.65,-83.43 -10.83,0.4 -64.73,48.96 -65.09,59.62z"/>
   <path class="fil1" d="M349.24 307.46c39.37,25.94 61.38,49.56 92.65,78.94 17.54,-6.94 25.79,-17.52 53.79,-23.46 33.07,-7.01 44.48,-0.5 73.57,-1.65 -4.36,-30.56 -78.03,-91.25 -113.87,-94.51l-15.36 -1.5c-5.15,3.6 -17.74,4.15 -25.36,7.91 -7.8,3.84 -13.97,6.41 -22.68,10.19 -11.45,4.98 -41.07,12.67 -42.74,24.08z"/>
   <path class="fil2" d="M95.44 316.33l-4.1 5.94c12.23,5.54 26.78,21.36 31.36,38.14 5.57,20.47 -1.99,40.17 -10.14,56.08l5.39 1.87c1.02,14.78 7.06,25.64 18.03,33.58 8.53,6.17 7.88,1 9.3,10.28 6.24,-4.79 4.09,-7.21 13.61,-11.07 8.25,-5.57 17.58,-4.98 27.94,-1.28 11.68,4.17 14.46,9 21.07,13.55l6.34 -32.94c-13.73,-12.91 0.13,-13.79 -23.04,-16.55 -5.13,-16.6 -12.09,-21.18 -30.5,-21.52 -4.87,-8.47 -0.97,-7.37 -9.78,-17.84 -5.18,-6.15 -3.01,-5.23 -10.98,-9.46l-4.15 -2.13c4.72,-23.57 6.81,-33.12 -5.55,-48.21l13.91 -44.67c-6.5,3 -9.18,6.76 -13.95,10.48 -12.72,9.9 -10.96,4.46 -23.61,22.7l-7.41 9.65c-3.46,3.71 3.89,-1.07 -3.74,3.4z"/>
   <path class="fil1" d="M214.24 430.48l-6.34 32.94c6.94,8.52 13.91,14.05 17.33,29.58 2.86,13 2.15,27.54 -2.64,40.11 29.65,12.05 89.16,11.73 108.53,-9.04 -22.71,-17.66 -38.68,-28.67 -58.03,-47.75 -17.94,-17.69 -30.67,-34.87 -47.49,-55.58l-11.36 9.74z"/>
   <path class="fil3" d="M203.63 290.37c13.7,7.69 40.01,19.51 48.4,32.76 5.42,-3.35 10.53,-6.43 13.71,-10.54 8.89,-11.48 2.78,-4.55 17.43,-15.84 39.52,-30.5 70.85,-33.04 81.82,-38.13 7.5,-3.48 1.78,-0.17 5.27,-3.68 -7.77,-2.77 -22.35,-16.86 -39.17,-23.73 -22.43,-9.16 -77.61,16.22 -93.8,28.89l-17.47 13.97c-2.67,2.97 0.22,0.34 -3.46,3.87l-12.73 12.43z"/>
   <path class="fil4" d="M225.6 420.74c16.82,20.71 29.25,38.13 47.19,55.82 19.35,19.08 35.62,29.85 58.33,47.51 8.87,-1.56 29.21,-23.68 32.15,-30.14 -33.5,-17.6 -93.22,-76.55 -110.91,-109.28 -9.32,4.14 -25.58,27.18 -26.76,36.09z"/>
   <path class="fil5" d="M77.54 442.15c10.62,51.27 48.88,106.73 77.55,127.69 7.48,-3.87 14.15,-14.81 20.33,-16.56 -27.11,-11.41 -44.31,-35.97 -39.88,-67.13 1.55,-10.9 7.7,-19.27 11.02,-26.54 -1.42,-9.28 -0.77,-4.11 -9.3,-10.28 -10.98,-7.94 -17.01,-18.8 -18.03,-33.59l-5.39 -1.86c-10.72,13.13 -20.6,20.77 -36.3,28.27z"/>
   <path class="fil6" d="M91.02 298.22c11,-20.63 28.42,-38.53 51.56,-46.83 -5.68,-6.85 -30.51,-24.52 -38.33,-30.07 -19.63,-13.92 -25.3,-19.54 -45.45,-1.02 -20.78,19.11 -14.12,21.34 0.6,40.42 6.98,9.06 23.49,33.12 31.62,37.5z"/>
   <path class="fil4" d="M317.45 325.03c11.62,3.48 35.23,23.54 57.29,42.68 20.23,17.55 39.32,34.13 43.36,40.75l23.79 -22.06c-30.79,-30.51 -52.64,-54.49 -92.65,-78.94 -7.75,-4.32 -29.06,9.91 -31.79,17.57z"/>
   <path class="fil7" d="M153.63 477.13c6.64,-3.65 8.86,-11.45 23.23,-0.72 7.21,5.37 11.03,9.85 14.97,18.29 7.74,16.63 9.62,45.1 -12.42,44.33l5.35 2.82c-16.48,1.65 -27.8,-6.57 -35.31,-21.29 -5.59,-10.97 -7.57,-24.79 -3.79,-37.2 2.7,-8.9 0.62,-7.83 7.97,-6.23zm-7.07 -17.52c-3.32,7.27 -9.47,15.64 -11.02,26.54 -4.43,31.16 12.77,55.72 39.88,67.13 15.08,3 18.29,1 31.51,-2.93 -3.15,-11.18 16.7,-34.1 -0.17,-65.1 -17.63,-32.41 -41.29,-26.64 -47.87,-34.1 -9.52,3.86 -6.09,3.66 -12.33,8.46z"/>
   <path class="fil8" d="M27.86 388.56c8.46,2.15 19.27,7.75 27.58,11.48 21.66,9.74 9.56,13.62 17.8,21.24l-1.75 -13.58c16.18,1.76 24.74,-10.87 28.34,-26.42 7.16,-30.95 -17.72,-25.34 -19.39,-32.55 -16.72,1 -39.65,-9.71 -44.85,-8.21 8.61,3.04 8.31,-0.91 9.69,9.3 1.56,11.57 -4.15,20.26 -9.14,29.09 -3.74,6.61 -1.27,4.77 -8.28,9.65z"/>
   <path class="fil9" d="M80.44 348.73c1.67,7.21 26.55,1.6 19.39,32.55 -3.6,15.55 -12.16,28.18 -28.34,26.42l1.75 13.58 4.3 20.87c15.7,-7.5 25.58,-15.14 36.3,-28.27 8.15,-15.92 14.43,-33 8.86,-53.47 -4.58,-16.78 -19.13,-32.6 -31.36,-38.14l-10.9 26.46z"/>
   <path class="fil10" d="M153.63 477.13c-7.71,11.94 -6.17,26.42 -0.03,39.15 2.5,5.16 5.85,11.74 9.23,14.81 2.66,2.43 10.78,6.84 16.58,7.94 22.04,0.77 20.16,-27.7 12.42,-44.33 -3.94,-8.44 -7.76,-12.92 -14.97,-18.29 -14.37,-10.73 -16.59,-2.93 -23.23,0.72z"/>
   <path class="fil11" d="M216.36 277.94c3.68,-3.53 0.79,-0.9 3.46,-3.87l17.47 -13.97c16.19,-12.67 71.37,-38.05 93.8,-28.89 16.82,6.87 31.4,20.96 39.17,23.73 -3.49,3.51 2.23,0.2 -5.27,3.68 -10.97,5.09 -42.3,7.63 -81.82,38.13 -14.65,11.29 -8.54,4.36 -17.43,15.84 -3.18,4.11 -8.29,7.19 -13.71,10.54 -8.39,-13.25 -34.7,-25.07 -48.4,-32.76l12.73 -12.43zm38.68 52.34c6.7,-5.49 8.81,-7 14.16,-12.35l11.52 -12.49c25.91,-19.83 67.91,-42.37 99.07,-45.04 -1.98,-7.67 -2.82,-6.99 -8.83,-11.56l-5.17 -4.02c-0.91,-0.65 -3.73,-2.57 -5.46,-3.78 -24.03,-16.77 -32.72,-18.98 -53.41,-15.24 -9.55,1.72 -19.22,4.66 -28.12,7.38 -15.47,4.74 -59.2,29.32 -67.49,39.82 -8,10.13 -14.29,13.86 -15.25,19.65 3.81,3.31 25.59,14.29 30.59,17.24 12.97,7.67 21.14,17.33 28.39,20.39z"/>
   <path class="fil12" d="M158.89 451.15c6.58,7.46 30.24,1.69 47.87,34.1 16.87,31 -2.98,53.92 0.17,65.1 7.49,-7.69 10.66,-7.01 15.66,-17.24 4.79,-12.57 5.5,-27.11 2.64,-40.11 -3.42,-15.53 -10.39,-21.06 -17.33,-29.58 -6.61,-4.55 -9.39,-9.38 -21.07,-13.55 -10.36,-3.7 -19.69,-4.29 -27.94,1.28z"/>
   <path class="fil12" d="M91.02 298.22l4.42 18.11c7.63,-4.47 0.28,0.31 3.74,-3.4l7.41 -9.65c12.65,-18.24 10.89,-12.8 23.61,-22.7 4.77,-3.72 7.45,-7.48 13.95,-10.48 5.8,-6.06 10.74,-5.73 16.44,-12.47 -6.65,-3.17 -8.38,-6.86 -18.01,-6.24 -23.14,8.3 -40.56,26.2 -51.56,46.83z"/>
   <path class="fil13" d="M296.19 185.7l-1.64 30.55 31.05 0.02 14.07 -1.22 -4.3 -30.61c-15.83,-7.5 -23.99,-3.26 -39.18,1.26z"/>
   <path class="fil14" d="M440.02 265.28l15.36 1.5c-8.68,-10.48 -32.99,-27.44 -48.85,-35.06 -17.02,-8.18 -45.24,-16.09 -66.86,-16.67l-11.27 0.97c4.88,6.48 22.81,5.1 43.58,15.42 5.69,2.83 9.75,3.08 14.77,5.21 15.65,6.64 39.02,18.22 53.27,28.63z"/>
   <path class="fil15" d="M18.01 383.57l9.85 4.99c7.01,-4.88 4.54,-3.04 8.28,-9.65 4.99,-8.83 10.7,-17.52 9.14,-29.09 -1.38,-10.21 -1.08,-6.26 -9.69,-9.3 -6.42,0.29 -3.17,-1.3 -5.86,2.6 6.73,-0.6 0.03,-3.38 4.73,1.35 -5.41,28.39 -12.42,30.57 -16.45,39.1z"/>
   <path class="fil15" d="M296.19 185.7c15.19,-4.52 23.35,-8.76 39.18,-1.26 0.19,-0.49 0.26,-1.77 0.28,-1.52l0.37 -4.79c-0.01,-3.32 -0.6,-4.77 -0.49,-8.82 -7.26,-1.22 -32.22,-6.73 -38.97,2.37 -3.42,4.61 -2.49,10.56 -0.37,14.02z"/>
   <path class="fil16" d="M179.41 539.03c-5.8,-1.1 -13.92,-5.51 -16.58,-7.94 -3.38,-3.07 -6.73,-9.65 -9.23,-14.81 -6.14,-12.73 -7.68,-27.21 0.03,-39.15 -7.35,-1.6 -5.27,-2.67 -7.97,6.23 -3.78,12.41 -1.8,26.23 3.79,37.2 7.51,14.72 18.83,22.94 35.31,21.29l-5.35 -2.82z"/>
   <path class="fil17" d="M18.01 383.57c4.03,-8.53 11.04,-10.71 16.45,-39.1 -4.7,-4.73 2,-1.95 -4.73,-1.35 -6.77,5.4 -12.3,17.45 -13.76,27.3 -1.38,9.37 0.59,10.46 0.59,10.46l1.45 2.69z"/>
   <path class="fil18" d="M78.22 234.17l4.22 10.66c-4.3,2.75 -7.35,1.76 -7.23,1.15l7.7 5.95c-0.57,0.3 -1.26,0.7 -1.72,0.9l-6.01 2.13c7.29,4 1.95,-1.54 5.79,5.69 -7.24,1.06 -6.47,-0.39 -11.99,2.63 0.84,0.04 11.52,1.5 13.01,-3.74 0.2,-0.7 0.65,-0.83 1.02,-1.21 2.6,1.47 3.24,1.37 6.27,3.37l-2.22 -2.05c-0.34,-0.37 -1.62,-1.65 -1.94,-2.05 -2.64,-3.36 -0.59,-0.39 -2.18,-4.1 5.61,-6.16 4.75,-1.5 9.71,-9.91l-9.19 5.65c0.18,-3.22 0.73,-5.76 -0.17,-8.66 -3.47,-11.23 -0.33,-2.14 -5.07,-6.41z"/>
  </g>
 </g>
</svg>
