<?xml version="1.0" encoding="UTF-8"?>
<!DOCTYPE svg PUBLIC "-//W3C//DTD SVG 1.1//EN" "http://www.w3.org/Graphics/SVG/1.1/DTD/svg11.dtd">
<!-- Creator: CorelDRAW 2021 (64-Bit) -->
<svg xmlns="http://www.w3.org/2000/svg" xml:space="preserve" width="586px" height="681px" version="1.1" style="shape-rendering:geometricPrecision; text-rendering:geometricPrecision; image-rendering:optimizeQuality; fill-rule:evenodd; clip-rule:evenodd"
viewBox="0 0 586 681.47"
 xmlns:xlink="http://www.w3.org/1999/xlink"
 xmlns:xodm="http://www.corel.com/coreldraw/odm/2003">
 <defs>
  <style type="text/css">
   <![CDATA[
    .fil10 {fill:#2C160B}
    .fil5 {fill:#2D1A13}
    .fil9 {fill:#331A0C}
    .fil4 {fill:#331C13}
    .fil8 {fill:#361D15}
    .fil7 {fill:#3A1E14}
    .fil3 {fill:#3D221A}
    .fil1 {fill:#4E3129}
    .fil6 {fill:#5A3A2E}
    .fil2 {fill:#69433A}
    .fil0 {fill:#6B473A}
   ]]>
  </style>
 </defs>
 <g id="Capa_x0020_1">
  <metadata id="CorelCorpID_0Corel-Layer"/>
  <g id="_2811458420688">
   <g>
    <path class="fil0" d="M183.41 561.32c4.08,-2.21 -4.89,-2.01 4.96,-1.51 8.75,0.45 13.27,10.72 21.66,22.49l6.19 13.38c-10.44,-1.59 -22.47,-4.68 -26.72,-12.08 -0.15,-0.26 -0.39,-0.85 -0.52,-1.13l-5.57 -21.15zm70.45 -73.21c18.53,4.79 33.87,21.89 34.44,36.91 1.16,30.84 -9.63,1.4 4.09,57.84 -9.51,-3.59 -4.42,1.6 -9.61,-8.36 -15.73,-30.18 10.69,-52.81 -18.65,-74.73 -2.1,-1.57 -4.01,-2.47 -5.27,-3.84l-5 -7.82zm-22.42 17.14c-8.39,-8.11 -11.96,-8.24 -17.27,-18.78 -16.74,-33.19 -10.86,-32.49 -29.87,-42.25 -6.62,-3.39 -16.76,-8.26 -20.31,-15.16 53.08,10.89 41.74,38 66.99,64.41 7.27,7.61 10.74,22.53 0.65,31.74l-0.19 -19.96zm10.06 -47.12c-20.84,-6.24 -17.79,-20.38 -31.72,-47.86 -8,-15.8 -4.63,-5.97 -17.97,-14.88 -0.45,-0.3 -1,-0.58 -1.43,-0.91l-5.71 -6.57c10.33,2.19 16.98,5.25 23.15,11.05 6.79,6.39 9,8.44 13.28,17.16 3.74,7.65 6.03,15.57 9.47,21.33 4.75,7.95 8.78,8.77 10.93,20.68zm-212.78 -159.55l11.69 10.24c4.74,3.99 1.09,-2.16 4.17,6 2.32,6.14 -5.42,3.63 2.35,4.7 15.19,3.88 1.35,8.7 16.76,48.76 27.81,7.7 26.65,16.03 34.71,32.98 10.98,23.11 23.64,36.96 25.17,42.19 2.48,8.44 5.81,48.16 25.35,59.93 22.52,13.56 26,3.41 33.53,16.26l-16.02 -3.2 -7.11 0.44c5.14,8.05 3.82,2.73 2.72,5.72 -20.3,0.05 -9.34,-3.82 -24.11,-6.81 -0.17,10.92 0.42,16.1 7.91,25.47 3.59,4.49 3.11,5.81 9.76,6.12 20.75,0.97 -3.07,-5.8 10.92,-3.49 9.68,14.38 11.24,37.89 17.36,46.53 3.72,5.25 13.9,8.12 21.41,11.15 7.8,3.14 14.56,9.16 20.41,11 7.07,4.87 4.48,4.62 9.83,9.42l32.3 11.55c11.55,1.52 5.2,0.3 7.18,-2.15 -9.44,-9.66 -20.16,-20.23 -25.97,-34.07l-0.31 -10.3c18.39,11.25 7.59,-0.28 31.45,22.98 8.75,8.53 4.47,6.8 16.35,12.18 10.03,4.55 10.62,6.41 22.83,5.6l2.22 -11.39c0.03,-0.77 0.04,-1.29 0.02,-2.06 -0.02,-0.78 -0.02,-1.31 -0.09,-2.08 -0.85,-10.52 -6.31,-11.24 -8,-21.56 -1.68,-10.24 1.66,-12.56 2.05,-21.87 0.2,-4.49 -1.02,-6.41 -0.86,-9.28 1.23,-22.38 -1.42,-5.93 6.84,-12.62 0.22,7.53 0.27,14.79 2.17,21.62 4.62,16.59 9.14,13.77 12.37,15.05 2.24,-12.79 1.63,-7.93 -1.78,-17.98 -6.17,-18.13 -12.78,-28.81 -17.61,-51.56 -0.13,0.49 -0.05,0.78 -0.13,1.51 -0.66,5.54 -2.41,6.1 -4.62,8.22l0.92 -3.02c-4.86,-4.66 -3.23,-3.58 -6.1,-10.97 -1.33,-3.42 -2.66,-6.16 -3.65,-9.79 -2.47,-9.11 -1.28,-11 -7.22,-18.89 -4.1,-5.46 -7.15,-9.5 -13.4,-12.91 -20.55,-11.2 -12.1,-4.42 -17.12,-12.77 14.23,3.12 10.77,2.9 21.12,11.01 4.85,-2.39 5.63,4.17 3.07,-5.18l-65.26 -57c-12.72,-17.02 -59.83,-40.45 -81.58,-46.13 4.65,20.19 17.02,17.86 22.74,40.65l7.15 0.56c-5.94,5.24 1.17,5.11 -8.93,2.64 -14.09,-3.44 -22.21,-28.94 -34.27,-33.63 -11.85,-4.61 -16.84,-2.71 -28.86,-10.57 -8.29,-5.42 -13,-10.56 -19.38,-19.98l-0.46 -4.71c8.01,0.53 17.56,6.68 23.42,10.48 4.84,3.14 11.39,7.17 18.11,8.22l7.51 -0.92c-3.33,-6.41 1.76,-1.07 -17.31,-11.94l10.61 0.07c-3.4,-2.19 -0.4,-0.05 -0.87,-5.31 -8.33,0.76 -5.49,-0.32 -13.02,-6.37 -3,-2.41 -3.5,-2.04 -6.45,-4.2 -4.49,-3.3 -2.16,-1.49 -4.96,-4.93 1.35,-1.06 1.02,-2.36 4.66,-3.03 -2.93,-8.44 -9.9,-5.5 -30.66,-16.13 -13.4,-6.86 -19.87,-12.05 -37.22,-8.91l-5.81 8.46z"/>
    <path class="fil1" d="M194.26 638.87c-15.7,7.2 -32.26,-17.95 -38.57,-28.88 -2.81,-4.87 -1.11,-1.21 -3.85,-8.5 18.17,11.67 13.2,28.79 42.42,37.38zm-70.6 -61.48c-9.29,-6.53 -4.64,-11.6 -17.33,-18.53 -26.85,-14.68 -14.65,-39.31 -14.79,-55.7 -0.11,-12.84 -6.39,-13.63 -9.85,-27.64 1.34,1.15 6.91,5.59 7.86,6.57 2.3,2.34 1.85,1.76 3.5,4.88 11.61,22.05 0,32.48 2.23,46.95 3.1,20.17 23.54,17.04 28.38,43.47zm-68.99 -131.48c7.71,3.03 4.14,-0.14 7.49,9.53 3.14,9.06 9.23,24.18 5.89,30.12 -3.98,-3.17 -3.5,-2.06 -6.24,-12.89 -1.15,-4.54 -2.06,-9.49 -3.13,-14 0.01,5.22 0.21,8.43 0.58,13.52 0.12,1.51 0.62,3.12 0.33,5.17 -1.01,7.19 5.01,0.29 -2.55,5.13 6.48,15.3 9.14,2.2 15.67,33.66 3.38,16.31 8.49,23.79 14.23,37.98 7.47,18.44 2.93,27.93 8.27,44 5.94,17.87 14.93,17.04 26.16,26.38 5.62,4.67 3.73,6.16 12.19,11.74 18.14,11.98 24.69,22.34 48.53,30.19 14.97,4.93 28.75,8.7 45.59,7.7 12.19,-0.72 33.88,-3.72 40.61,-12.77 -4.97,-1.66 -5.52,-2.81 -10.2,-3.47 -5.66,-0.8 -10.88,0.18 -16.71,-0.77 -13.11,-2.14 -11.61,-8.7 -23.64,-11.53 10.04,-5.4 7.68,4.65 27.35,5.35 28.58,1.01 10.72,-0.09 25.17,5.61l7.74 1.97c17.54,-3.64 30.38,-15.51 41.34,-24.42 12.07,-9.81 21.17,-19.61 27.35,-40.51 14.37,-48.62 -0.01,-70.46 -18.86,-107.67 -13.7,4.88 2.38,3.63 -16.81,-15.26l2.04 -0.96c3.32,-1.31 0.83,7.17 2.74,-0.91 0.07,-0.31 0.55,-0.15 -0.04,-0.17l-0.44 -8.33c-2.79,-7.51 -0.07,-2.63 -7.02,-9.16 -5.34,-5.03 -3.11,-4.23 -10.26,-6.64 -4.09,5.61 0.86,2.19 -7.56,1.75 -2.89,-0.15 -4.63,-0.44 -6.85,-1.32 -3.28,-1.29 -13.02,-5.78 -6.58,-7.89 -8.05,-11.74 -12.77,-14.48 -23.02,-23.12l-47.22 -35.85c-13.55,-10.53 -15.33,-17.55 -38.66,-24.6 -15.42,-4.66 -19.99,-3.88 -34.45,-13.61 -6.72,-4.53 -3.5,-4.37 -11.52,-6.17 0.47,5.26 -2.53,3.12 0.87,5.31l-10.61 -0.07c19.07,10.87 13.98,5.53 17.31,11.94l-7.51 0.92c-6.72,-1.05 -13.27,-5.08 -18.11,-8.22 -5.86,-3.8 -15.41,-9.95 -23.42,-10.48l0.46 4.71 18.15 12.47c8.85,8.09 20.79,8.22 31.65,12.22 8,2.95 12.47,10.41 16.75,17.48 6.08,10.05 7.37,6.67 17.74,18.81 -5.72,-22.79 -18.09,-20.46 -22.74,-40.65 21.75,5.68 68.86,29.11 81.58,46.13l65.26 57c2.56,9.35 1.78,2.79 -3.07,5.18 6.94,5.39 16.11,10.87 18.77,20.09l7.6 34.23 -0.92 3.02c2.21,-2.12 3.96,-2.68 4.62,-8.22 0.08,-0.73 0,-1.02 0.13,-1.51 4.83,22.75 11.44,33.43 17.61,51.56 3.41,10.05 4.02,5.19 1.78,17.98 -3.23,-1.28 -7.75,1.54 -12.37,-15.05 -1.9,-6.83 -1.95,-14.09 -2.17,-21.62 -8.26,6.69 -5.61,-9.76 -6.84,12.62 -0.16,2.87 1.06,4.79 0.86,9.28 -0.39,9.31 -3.73,11.63 -2.05,21.87 1.69,10.32 7.15,11.04 8,21.56 0.07,0.77 0.07,1.3 0.09,2.08 0.02,0.77 0.01,1.29 -0.02,2.06l-2.22 11.39c-12.21,0.81 -12.8,-1.05 -22.83,-5.6 -11.88,-5.38 -7.6,-3.65 -16.35,-12.18 -23.86,-23.26 -13.06,-11.73 -31.45,-22.98l0.31 10.3c4.45,-2.39 -1.11,-2.16 3.34,-0.38 0.46,0.19 2.8,2.43 2.98,2.62 5.73,6.44 5.86,12.04 14.69,18.27 6.46,4.57 22.01,13.88 18.77,22.6 -8.23,-3.83 -4.4,-6.07 -13.81,-9.04 -1.98,2.45 4.37,3.67 -7.18,2.15l-32.3 -11.55c-5.35,-4.8 -2.76,-4.55 -9.83,-9.42l1.74 7.39 -49.18 -21.8c-6.63,-6.27 -14.24,-48.04 -11.74,-54.27 -13.99,-2.31 9.83,4.46 -10.92,3.49 -6.65,-0.31 -6.17,-1.63 -9.76,-6.12 -7.49,-9.37 -8.08,-14.55 -7.91,-25.47 14.77,2.99 3.81,6.86 24.11,6.81 1.1,-2.99 2.42,2.33 -2.72,-5.72l7.11 -0.44c-6.67,-2.93 -15.56,-6.59 -20.73,-10.04 -3.24,-2.16 -5.67,-4.77 -7.96,-7.18 -2.64,-2.78 -3.63,-3.36 -5.96,-7.31 -6.64,-11.23 -10.21,-30.56 -12.18,-43.28 -1.26,-8.1 -1.22,-6.12 -10.83,-18.37l-16.26 -27.49c-1.92,-5.68 -3.15,-20.61 -18.39,-23.78l-4.03 3.89c-0.1,-0.27 -0.57,0.44 -0.85,0.66 10.33,8.35 14.03,14.47 20.79,26.31 4.83,8.49 10.54,28.17 12.04,38.17 -13.46,-5.25 -8.28,-9.87 -20.56,-15.18 -11.83,-0.09 -19.5,-8.71 -23.05,-20.59l-10.38 -33.7c9.02,4.97 4.95,5.48 11.83,11.4 -1.34,-10.54 -2.27,-9.54 -5.39,-17.61l5.99 -4.18c-3.37,-8.89 -7.83,-9.95 -10.55,-21.66 -1.62,-7 -1.31,-7.65 -1.35,-15.03 -0.06,-10.8 2.62,-0.75 -1.68,-11.95 -7.77,-1.07 -0.03,1.44 -2.35,-4.7 -3.08,-8.16 0.57,-2.01 -4.17,-6l-11.69 -10.24c-13.46,6.48 -2.5,63.31 -0.04,78.27 2.73,16.58 17.78,57.5 25.99,69.06z"/>
    <path class="fil2" d="M59.91 389.95c1.66,8.13 2.68,18.88 6.26,25.93 4.22,8.3 9.68,11.48 15.34,16.96 12.28,5.31 7.1,9.93 20.56,15.18 -1.5,-10 -7.21,-29.68 -12.04,-38.17 -6.76,-11.84 -10.46,-17.96 -20.79,-26.31 0.28,-0.22 0.75,-0.93 0.85,-0.66l4.03 -3.89c-5.84,-2.53 -10.65,-6.35 -13.61,-10.83l-5.99 4.18c3.12,8.07 4.05,7.07 5.39,17.61z"/>
    <path class="fil3" d="M60.51 368.16c2.96,4.48 7.77,8.3 13.61,10.83 15.24,3.17 16.47,18.1 18.39,23.78l16.26 27.49c9.61,12.25 9.57,10.27 10.83,18.37 1.97,12.72 5.54,32.05 12.18,43.28 2.33,3.95 3.32,4.53 5.96,7.31 2.29,2.41 4.72,5.02 7.96,7.18 5.17,3.45 14.06,7.11 20.73,10.04l16.02 3.2c-7.53,-12.85 -11.01,-2.7 -33.53,-16.26 -19.54,-11.77 -22.87,-51.49 -25.35,-59.93 -1.53,-5.23 -14.19,-19.08 -25.17,-42.19 -8.06,-16.95 -6.9,-25.28 -34.71,-32.98 -15.41,-40.06 -1.57,-44.88 -16.76,-48.76 4.3,11.2 1.62,1.15 1.68,11.95 0.04,7.38 -0.27,8.03 1.35,15.03 2.72,11.71 7.18,12.77 10.55,21.66z"/>
    <path class="fil3" d="M231.44 505.25l0.19 19.96c10.09,-9.21 6.62,-24.13 -0.65,-31.74 -25.25,-26.41 -13.91,-53.52 -66.99,-64.41 3.55,6.9 13.69,11.77 20.31,15.16 19.01,9.76 13.13,9.06 29.87,42.25 5.31,10.54 8.88,10.67 17.27,18.78z"/>
    <path class="fil3" d="M253.86 488.11l5 7.82c1.26,1.37 3.17,2.27 5.27,3.84 29.34,21.92 2.92,44.55 18.65,74.73 5.19,9.96 0.1,4.77 9.61,8.36 -13.72,-56.44 -2.93,-27 -4.09,-57.84 -0.57,-15.02 -15.91,-32.12 -34.44,-36.91z"/>
    <path class="fil4" d="M225.7 612.57c-5.85,-1.84 -12.61,-7.86 -20.41,-11 -7.51,-3.03 -17.69,-5.9 -21.41,-11.15 -6.12,-8.64 -7.68,-32.15 -17.36,-46.53 -2.5,6.23 5.11,48 11.74,54.27l49.18 21.8 -1.74 -7.39z"/>
    <path class="fil5" d="M123.66 577.39c-4.84,-26.43 -25.28,-23.3 -28.38,-43.47 -2.23,-14.47 9.38,-24.9 -2.23,-46.95 -1.65,-3.12 -1.2,-2.54 -3.5,-4.88 -0.95,-0.98 -6.52,-5.42 -7.86,-6.57 3.46,14.01 9.74,14.8 9.85,27.64 0.14,16.39 -12.06,41.02 14.79,55.7 12.69,6.93 8.04,12 17.33,18.53z"/>
    <path class="fil3" d="M241.5 458.13c-2.15,-11.91 -6.18,-12.73 -10.93,-20.68 -3.44,-5.76 -5.73,-13.68 -9.47,-21.33 -4.28,-8.72 -6.49,-10.77 -13.28,-17.16 -6.17,-5.8 -12.82,-8.86 -23.15,-11.05l5.71 6.57c0.43,0.33 0.98,0.61 1.43,0.91 13.34,8.91 9.97,-0.92 17.97,14.88 13.93,27.48 10.88,41.62 31.72,47.86z"/>
    <path class="fil3" d="M165.46 398.78c-10.37,-12.14 -11.66,-8.76 -17.74,-18.81 -4.28,-7.07 -8.75,-14.53 -16.75,-17.48 -10.86,-4 -22.8,-4.13 -31.65,-12.22l-18.15 -12.47c6.38,9.42 11.09,14.56 19.38,19.98 12.02,7.86 17.01,5.96 28.86,10.57 12.06,4.69 20.18,30.19 34.27,33.63 10.1,2.47 2.99,2.6 8.93,-2.64l-7.15 -0.56z"/>
    <path class="fil6" d="M188.37 559.81c-9.85,-0.5 -0.88,-0.7 -4.96,1.51l5.57 21.15c0.13,0.28 0.37,0.87 0.52,1.13 4.25,7.4 16.28,10.49 26.72,12.08l-6.19 -13.38c-8.39,-11.77 -12.91,-22.04 -21.66,-22.49z"/>
    <path class="fil7" d="M312.86 520.76l-7.6 -34.23c-2.66,-9.22 -11.83,-14.7 -18.77,-20.09 -10.35,-8.11 -6.89,-7.89 -21.12,-11.01 5.02,8.35 -3.43,1.57 17.12,12.77 6.25,3.41 9.3,7.45 13.4,12.91 5.94,7.89 4.75,9.78 7.22,18.89 0.99,3.63 2.32,6.37 3.65,9.79 2.87,7.39 1.24,6.31 6.1,10.97z"/>
    <path class="fil8" d="M81.51 432.84c-5.66,-5.48 -11.12,-8.66 -15.34,-16.96 -3.58,-7.05 -4.6,-17.8 -6.26,-25.93 -6.88,-5.92 -2.81,-6.43 -11.83,-11.4l10.38 33.7c3.55,11.88 11.22,20.5 23.05,20.59z"/>
    <path class="fil8" d="M275.01 631.39c9.41,2.97 5.58,5.21 13.81,9.04 3.24,-8.72 -12.31,-18.03 -18.77,-22.6 -8.83,-6.23 -8.96,-11.83 -14.69,-18.27 -0.18,-0.19 -2.52,-2.43 -2.98,-2.62 -4.45,-1.78 1.11,-2.01 -3.34,0.38 5.81,13.84 16.53,24.41 25.97,34.07z"/>
    <path class="fil4" d="M268.29 661.37l9.71 -2.84 -7.74 -1.97c-14.45,-5.7 3.41,-4.6 -25.17,-5.61 -19.67,-0.7 -17.31,-10.75 -27.35,-5.35 12.03,2.83 10.53,9.39 23.64,11.53 5.83,0.95 11.05,-0.03 16.71,0.77 4.68,0.66 5.23,1.81 10.2,3.47z"/>
    <path class="fil4" d="M57.04 482.49c7.56,-4.84 1.54,2.06 2.55,-5.13 0.29,-2.05 -0.21,-3.66 -0.33,-5.17 -0.37,-5.09 -0.57,-8.3 -0.58,-13.52 1.07,4.51 1.98,9.46 3.13,14 2.74,10.83 2.26,9.72 6.24,12.89 3.34,-5.94 -2.75,-21.06 -5.89,-30.12 -3.35,-9.67 0.22,-6.5 -7.49,-9.53 2.33,14.96 -2.87,17.87 2.37,36.58z"/>
    <path class="fil4" d="M194.26 638.87c-29.22,-8.59 -24.25,-25.71 -42.42,-37.38 2.74,7.29 1.04,3.63 3.85,8.5 6.31,10.93 22.87,36.08 38.57,28.88z"/>
    <path class="fil9" d="M122.18 333.69c-1.13,-2.21 -0.2,-1.87 -3.42,-4.95 -3.47,-3.31 -2.24,-1.22 -6.09,-4.96 -5.18,-5.05 -3.9,-4.94 -10.26,-8.62 -3.64,0.67 -3.31,1.97 -4.66,3.03 2.8,3.44 0.47,1.63 4.96,4.93 2.95,2.16 3.45,1.79 6.45,4.2 7.53,6.05 4.69,7.13 13.02,6.37z"/>
    <path class="fil4" d="M327.83 485.93c-4.74,-3.58 -6.19,-19.85 -12.51,-25.63l0.44 8.33c0.59,0.02 0.11,-0.14 0.04,0.17 -1.91,8.08 0.58,-0.4 -2.74,0.91l-2.04 0.96c19.19,18.89 3.11,20.14 16.81,15.26z"/>
    <path class="fil10" d="M298.04 444.5c-7.64,-1.91 -16.32,-5.41 -20.99,-7.46 -6.44,2.11 3.3,6.6 6.58,7.89 2.22,0.88 3.96,1.17 6.85,1.32 8.42,0.44 3.47,3.86 7.56,-1.75z"/>
   </g>
   <g>
    <path class="fil0" d="M384.29 271.73c3.91,2.51 -0.6,-5.25 3.71,3.62 3.83,7.88 -2.98,16.8 -9.24,29.82l-8.74 11.88c-3.64,-9.91 -6.74,-21.93 -2.31,-29.23 0.16,-0.26 0.56,-0.76 0.74,-1l15.84 -15.09zm98.12 26.38c4.75,18.55 -2.83,40.24 -15.72,47.98 -26.45,15.9 -5.87,-7.76 -48.68,31.5 -1.45,-10.06 -3.54,-3.11 2.68,-12.45 18.85,-28.35 51.42,-16.13 56.46,-52.4 0.36,-2.6 0.22,-4.71 0.82,-6.47l4.44 -8.16zm-25.83 -11.36c3.05,-11.26 1.44,-14.46 8.11,-24.19 21,-30.68 23.21,-25.19 22.59,-46.55 -0.22,-7.43 -0.85,-18.67 3.48,-25.1 16.07,51.75 -13.14,54.89 -24.09,89.75 -3.15,10.05 -14.55,20.28 -27.48,15.89l17.39 -9.8zm46.12 -13.93c-4.59,-21.26 9.27,-25.41 26.62,-50.87 9.97,-14.63 2.99,-6.94 4.36,-22.92 0.05,-0.54 0.02,-1.15 0.11,-1.69l3 -8.17c3.06,10.1 3.59,17.4 1.49,25.61 -2.32,9.02 -3.05,11.95 -8.63,19.9 -4.89,6.98 -10.73,12.8 -14.11,18.6 -4.67,7.99 -3.44,11.92 -12.84,19.54zm37.08 -263.35l-3.33 15.18c-1.2,6.08 2.42,-0.09 -3.24,6.55 -4.26,4.99 -5.8,-2.99 -2.98,4.32 3.93,15.19 -6.98,5.39 -34.63,38.21 6.68,28.07 -1.17,31.07 -12.14,46.31 -14.93,20.77 -20.96,38.54 -24.8,42.41 -6.2,6.25 -39.38,28.33 -40.26,51.12 -1.02,26.27 9.55,24.41 1.94,37.21l-4.93 -15.57 -3.82 -6.02c-4.57,8.39 -0.55,4.66 -3.7,5.15 -9.83,-17.76 -1.15,-10.03 -5.66,-24.42 -9.65,5.13 -13.9,8.15 -18.5,19.23 -2.2,5.31 -3.58,5.53 -0.65,11.5 9.16,18.64 3.59,-5.49 8.32,7.89 -7.92,15.41 -27.76,28.11 -32.37,37.65 -2.8,5.79 -0.41,16.09 0.56,24.13 1.02,8.35 -1,17.17 0.22,23.18 -0.86,8.55 -1.89,6.16 -3.51,13.16l5.47 33.86c4.24,10.86 2.24,4.7 5.35,5.25 3.9,-12.93 7.99,-27.41 17.3,-39.18l8.88 -5.24c-0.98,21.54 3.9,6.51 -4.96,38.63 -3.25,11.78 -3.8,7.2 -2.78,20.2 0.86,10.99 -0.49,12.4 6.12,22.7l11.04 -3.55c0.7,-0.35 1.15,-0.59 1.82,-0.98 0.68,-0.39 1.14,-0.65 1.78,-1.08 8.8,-5.82 6.79,-10.95 15.02,-17.41 8.16,-6.42 11.8,-4.61 20.14,-8.75 4.03,-2 5.13,-4 7.72,-5.24 20.19,-9.72 4.51,-4.1 14.35,-0.1 -6.49,3.83 -12.83,7.38 -17.89,12.34 -12.3,12.04 -7.65,14.64 -7.21,18.09 12.28,-4.2 7.73,-2.39 14.89,-10.23 12.9,-14.15 19.06,-25.1 36.66,-40.31 -0.49,0.13 -0.7,0.34 -1.39,0.62 -5.17,2.1 -6.49,0.83 -9.43,-0.08l3.1 -0.65c1.73,-6.51 1.57,-4.56 6.66,-10.64 2.35,-2.81 4.12,-5.3 6.82,-7.92 6.78,-6.56 9.01,-6.43 13.06,-15.43 2.8,-6.23 4.87,-10.85 4.84,-17.98 -0.1,-23.4 -1.97,-12.73 2.92,-21.15 4.14,13.97 2.66,10.83 0.55,23.81 4.43,3.09 -0.94,6.95 6.02,0.19l18.43 -84.66c8.78,-19.36 6.57,-71.92 1.04,-93.72 -15.43,13.82 -7.43,23.53 -24.62,39.53l2.96 6.54c-7.46,-2.68 -3.91,3.49 -6.63,-6.55 -3.78,-13.99 14.64,-33.42 12.92,-46.25 -1.68,-12.6 -5.74,-16.05 -4.66,-30.37 0.75,-9.87 2.98,-16.49 8.15,-26.62l3.9 -2.67c3.4,7.27 2.62,18.6 2.12,25.57 -0.41,5.75 -0.78,13.44 1.54,19.82l4.43 6.14c4.01,-6.01 1.79,1.02 2.11,-20.93l5.05 9.33c0.28,-4.03 -0.14,-0.37 4.24,-3.32 -4.69,-6.93 -2.38,-4.97 -0.71,-14.47 0.66,-3.8 0.1,-4.06 0.57,-7.68 0.72,-5.53 0.26,-2.61 1.92,-6.73 1.58,0.68 2.56,-0.25 4.9,2.63 5.99,-6.64 0.05,-11.33 -0.66,-34.64 -0.46,-15.05 0.96,-23.23 -10.16,-36.9l-10.21 -1.01z"/>
    <path class="fil1" d="M321.59 318.65c-13.88,-10.27 0.16,-36.91 6.69,-47.71 2.91,-4.81 0.53,-1.56 5.59,-7.47 -1.45,21.54 -18.85,25.45 -12.28,55.18zm19.79 -91.49c1.24,-11.29 7.92,-9.66 7.88,-24.13 -0.11,-30.6 27.36,-31.8 41.65,-39.83 11.19,-6.28 8.85,-12.17 19.45,-21.96 -0.36,1.73 -1.56,8.75 -1.96,10.06 -0.94,3.13 -0.65,2.46 -2.59,5.41 -13.71,20.81 -28.44,15.68 -40.04,24.61 -16.17,12.45 -3.57,28.84 -24.39,45.84zm81.88 -123.88c1.06,8.23 2.12,3.56 -4.74,11.16 -6.42,7.13 -16.72,19.76 -23.54,19.69 0.86,-5.01 0.12,-4.05 8.28,-11.67 3.43,-3.2 7.33,-6.39 10.76,-9.5 -4.57,2.53 -7.29,4.24 -11.56,7.03 -1.27,0.83 -2.44,2.04 -4.38,2.78 -6.78,2.59 2.17,4.53 -5.72,0.24 -10.27,13.06 2.49,9.07 -21.92,29.96 -12.66,10.84 -16.75,18.92 -26.4,30.8 -12.54,15.44 -23.05,16.04 -34.55,28.47 -12.78,13.83 -7.72,21.31 -10.48,35.64 -1.38,7.18 -3.6,6.24 -4.41,16.34 -1.74,21.68 -7.65,32.41 -3.02,57.09 2.9,15.48 6.25,29.37 15.25,43.64 6.52,10.33 19.61,27.88 30.79,29.41 -0.95,-5.16 -0.21,-6.2 -1.89,-10.61 -2.03,-5.35 -5.41,-9.45 -7.39,-15 -4.46,-12.53 2.02,-14.38 -1.31,-26.28 9.58,6.18 -0.36,8.98 8.52,26.54 12.9,25.52 5.25,9.34 7.23,24.75l2.01 7.72c11.65,13.62 28.23,19.13 41.33,24.44 14.42,5.83 27.39,9.08 48.68,4.4 49.52,-10.87 61.71,-34 85.21,-68.46 -10.89,-9.65 -2.03,3.83 5.25,-22.1l1.83 1.33c2.74,2.28 -5.88,4.19 2.11,1.96 0.31,-0.09 0.4,0.41 0.14,-0.11l7.08 -4.41c5.23,-6.07 2.26,-1.33 4.64,-10.57 1.82,-7.1 2.2,-4.76 0.86,-12.18 -6.88,-0.89 -1.5,1.8 -5.18,-5.79 -1.27,-2.6 -1.85,-4.27 -2.15,-6.63 -0.45,-3.5 -1.22,-14.19 3.74,-9.57 6.4,-12.72 6.52,-18.17 9.14,-31.33l8.62 -58.65c2.68,-16.95 7.97,-21.89 2.89,-45.73 -3.36,-15.75 -6.25,-19.38 -4.7,-36.75 0.72,-8.06 2.13,-5.17 -0.15,-13.06 -4.38,2.95 -3.96,-0.71 -4.24,3.32l-5.05 -9.33c-0.32,21.95 1.9,14.92 -2.11,20.93l-4.43 -6.14c-2.32,-6.38 -1.95,-14.07 -1.54,-19.82 0.5,-6.97 1.28,-18.3 -2.12,-25.57l-3.9 2.67 -2.17 21.92c-2.82,11.65 2.83,22.18 4.57,33.62 1.28,8.43 -3.1,15.95 -7.23,23.1 -5.87,10.18 -2.28,9.68 -7.91,24.61 17.19,-16 9.19,-25.71 24.62,-39.53 5.53,21.8 7.74,74.36 -1.04,93.72l-18.43 84.66c-6.96,6.76 -1.59,2.9 -6.02,-0.19 -1.37,8.68 -1.75,19.35 -8.54,26.14l-26.31 23.17 -3.1 0.65c2.94,0.91 4.26,2.18 9.43,0.08 0.69,-0.28 0.9,-0.49 1.39,-0.62 -17.6,15.21 -23.76,26.16 -36.66,40.31 -7.16,7.84 -2.61,6.03 -14.89,10.23 -0.44,-3.45 -5.09,-6.05 7.21,-18.09 5.06,-4.96 11.4,-8.51 17.89,-12.34 -9.84,-4 5.84,-9.62 -14.35,0.1 -2.59,1.24 -3.69,3.24 -7.72,5.24 -8.34,4.14 -11.98,2.33 -20.14,8.75 -8.23,6.46 -6.22,11.59 -15.02,17.41 -0.64,0.43 -1.1,0.69 -1.78,1.08 -0.67,0.39 -1.12,0.63 -1.82,0.98l-11.04 3.55c-6.61,-10.3 -5.26,-11.71 -6.12,-22.7 -1.02,-13 -0.47,-8.42 2.78,-20.2 8.86,-32.12 3.98,-17.09 4.96,-38.63l-8.88 5.24c4.24,2.75 1.37,-2.01 1.95,2.74 0.06,0.49 -0.78,3.63 -0.86,3.88 -2.87,8.12 -7.71,10.94 -8.91,21.68 -0.89,7.86 -1.54,25.97 -10.74,27.34 -0.62,-9.06 3.19,-6.78 1.26,-16.46 -3.11,-0.55 -1.11,5.61 -5.35,-5.25l-5.47 -33.86c1.62,-7 2.65,-4.61 3.51,-13.16l-5.64 5.09 -4.63 -53.59c2.29,-8.83 35.2,-35.65 41.86,-36.46 -4.73,-13.38 0.84,10.75 -8.32,-7.89 -2.93,-5.97 -1.55,-6.19 0.65,-11.5 4.6,-11.08 8.85,-14.1 18.5,-19.23 4.51,14.39 -4.17,6.66 5.66,24.42 3.15,-0.49 -0.87,3.24 3.7,-5.15l3.82 6.02c-0.65,-7.26 -1.74,-16.81 -1.21,-23 0.33,-3.88 1.44,-7.27 2.44,-10.44 1.16,-3.65 1.2,-4.8 3.53,-8.75 6.64,-11.23 21.84,-23.69 32.03,-31.55 6.5,-5.01 4.78,-4.02 10.87,-18.35l16.23 -27.51c4.05,-4.42 16.53,-12.7 11.95,-27.58l-5.35 -1.65c0.19,-0.22 -0.65,-0.28 -0.98,-0.42 -2.33,13.07 -5.91,19.27 -13.02,30.9 -5.1,8.33 -19.58,22.82 -27.62,28.96 -1.89,-14.32 4.65,-12.02 3.38,-25.33 -5.63,-10.41 -1.79,-21.28 6.91,-30.12l24.5 -25.36c0,10.3 -2.4,6.98 -4.27,15.87 8.59,-6.26 7.26,-6.6 12.83,-13.23l6.55 3.23c6.15,-7.24 4.93,-11.66 13.88,-19.68 5.35,-4.8 6.07,-4.84 12.51,-8.44 9.43,-5.26 1.92,1.93 9.66,-7.24 -2.82,-7.31 -1.28,0.67 2.98,-4.32 5.66,-6.64 2.04,-0.47 3.24,-6.55l3.33 -15.18c-12.17,-8.66 -56.66,28.35 -68.57,37.73 -13.21,10.39 -41.79,43.32 -47.95,56.08z"/>
    <path class="fil2" d="M474.8 80.88c-6.33,5.37 -15.25,11.45 -19.69,17.98 -5.24,7.71 -5.39,14.03 -7.45,21.63 1.27,13.31 -5.27,11.01 -3.38,25.33 8.04,-6.14 22.52,-20.63 27.62,-28.96 7.11,-11.63 10.69,-17.83 13.02,-30.9 0.33,0.14 1.17,0.2 0.98,0.42l5.35 1.65c-0.59,-6.33 0.43,-12.38 2.93,-17.15l-6.55 -3.23c-5.57,6.63 -4.24,6.97 -12.83,13.23z"/>
    <path class="fil3" d="M494.18 70.88c-2.5,4.77 -3.52,10.82 -2.93,17.15 4.58,14.88 -7.9,23.16 -11.95,27.58l-16.23 27.51c-6.09,14.33 -4.37,13.34 -10.87,18.35 -10.19,7.86 -25.39,20.32 -32.03,31.55 -2.33,3.95 -2.37,5.1 -3.53,8.75 -1,3.17 -2.11,6.56 -2.44,10.44 -0.53,6.19 0.56,15.74 1.21,23l4.93 15.57c7.61,-12.8 -2.96,-10.94 -1.94,-37.21 0.88,-22.79 34.06,-44.87 40.26,-51.12 3.84,-3.87 9.87,-21.64 24.8,-42.41 10.97,-15.24 18.82,-18.24 12.14,-46.31 27.65,-32.82 38.56,-23.02 34.63,-38.21 -7.74,9.17 -0.23,1.98 -9.66,7.24 -6.44,3.6 -7.16,3.64 -12.51,8.44 -8.95,8.02 -7.73,12.44 -13.88,19.68z"/>
    <path class="fil3" d="M456.58 286.75l-17.39 9.8c12.93,4.39 24.33,-5.84 27.48,-15.89 10.95,-34.86 40.16,-38 24.09,-89.75 -4.33,6.43 -3.7,17.67 -3.48,25.1 0.62,21.36 -1.59,15.87 -22.59,46.55 -6.67,9.73 -5.06,12.93 -8.11,24.19z"/>
    <path class="fil3" d="M482.41 298.11l-4.44 8.16c-0.6,1.76 -0.46,3.87 -0.82,6.47 -5.04,36.27 -37.61,24.05 -56.46,52.4 -6.22,9.34 -4.13,2.39 -2.68,12.45 42.81,-39.26 22.23,-15.6 48.68,-31.5 12.89,-7.74 20.47,-29.43 15.72,-47.98z"/>
    <path class="fil4" d="M359.81 333.5c-1.22,-6.01 0.8,-14.83 -0.22,-23.18 -0.97,-8.04 -3.36,-18.34 -0.56,-24.13 4.61,-9.54 24.45,-22.24 32.37,-37.65 -6.66,0.81 -39.57,27.63 -41.86,36.46l4.63 53.59 5.64 -5.09z"/>
    <path class="fil5" d="M341.38 227.16c20.82,-17 8.22,-33.39 24.39,-45.84 11.6,-8.93 26.33,-3.8 40.04,-24.61 1.94,-2.95 1.65,-2.28 2.59,-5.41 0.4,-1.31 1.6,-8.33 1.96,-10.06 -10.6,9.79 -8.26,15.68 -19.45,21.96 -14.29,8.03 -41.76,9.23 -41.65,39.83 0.04,14.47 -6.64,12.84 -7.88,24.13z"/>
    <path class="fil3" d="M502.7 272.82c9.4,-7.62 8.17,-11.55 12.84,-19.54 3.38,-5.8 9.22,-11.62 14.11,-18.6 5.58,-7.95 6.31,-10.88 8.63,-19.9 2.1,-8.21 1.57,-15.51 -1.49,-25.61l-3 8.17c-0.09,0.54 -0.06,1.15 -0.11,1.69 -1.37,15.98 5.61,8.29 -4.36,22.92 -17.35,25.46 -31.21,29.61 -26.62,50.87z"/>
    <path class="fil3" d="M518 177.58c5.63,-14.93 2.04,-14.43 7.91,-24.61 4.13,-7.15 8.51,-14.67 7.23,-23.1 -1.74,-11.44 -7.39,-21.97 -4.57,-33.62l2.17 -21.92c-5.17,10.13 -7.4,16.75 -8.15,26.62 -1.08,14.32 2.98,17.77 4.66,30.37 1.72,12.83 -16.7,32.26 -12.92,46.25 2.72,10.04 -0.83,3.87 6.63,6.55l-2.96 -6.54z"/>
    <path class="fil6" d="M388 275.35c-4.31,-8.87 0.2,-1.11 -3.71,-3.62l-15.84 15.09c-0.18,0.24 -0.58,0.74 -0.74,1 -4.43,7.3 -1.33,19.32 2.31,29.23l8.74 -11.88c6.26,-13.02 13.07,-21.94 9.24,-29.82z"/>
    <path class="fil7" d="M482.28 365.55l26.31 -23.17c6.79,-6.79 7.17,-17.46 8.54,-26.14 2.11,-12.98 3.59,-9.84 -0.55,-23.81 -4.89,8.42 -3.02,-2.25 -2.92,21.15 0.03,7.13 -2.04,11.75 -4.84,17.98 -4.05,9 -6.28,8.87 -13.06,15.43 -2.7,2.62 -4.47,5.11 -6.82,7.92 -5.09,6.08 -4.93,4.13 -6.66,10.64z"/>
    <path class="fil8" d="M447.66 120.49c2.06,-7.6 2.21,-13.92 7.45,-21.63 4.44,-6.53 13.36,-12.61 19.69,-17.98 1.87,-8.89 4.27,-5.57 4.27,-15.87l-24.5 25.36c-8.7,8.84 -12.54,19.71 -6.91,30.12z"/>
    <path class="fil8" d="M367.12 385.77c1.93,9.68 -1.88,7.4 -1.26,16.46 9.2,-1.37 9.85,-19.48 10.74,-27.34 1.2,-10.74 6.04,-13.56 8.91,-21.68 0.08,-0.25 0.92,-3.39 0.86,-3.88 -0.58,-4.75 2.29,0.01 -1.95,-2.74 -9.31,11.77 -13.4,26.25 -17.3,39.18z"/>
    <path class="fil4" d="M337.62 394.36l7.17 7.12 -2.01 -7.72c-1.98,-15.41 5.67,0.77 -7.23,-24.75 -8.88,-17.56 1.06,-20.36 -8.52,-26.54 3.33,11.9 -3.15,13.75 1.31,26.28 1.98,5.55 5.36,9.65 7.39,15 1.68,4.41 0.94,5.45 1.89,10.61z"/>
    <path class="fil4" d="M392.36 123.01c7.89,4.29 -1.06,2.35 5.72,-0.24 1.94,-0.74 3.11,-1.95 4.38,-2.78 4.27,-2.79 6.99,-4.5 11.56,-7.03 -3.43,3.11 -7.33,6.3 -10.76,9.5 -8.16,7.62 -7.42,6.66 -8.28,11.67 6.82,0.07 17.12,-12.56 23.54,-19.69 6.86,-7.6 5.8,-2.93 4.74,-11.16 -11.98,9.27 -17.04,6.12 -30.9,19.73z"/>
    <path class="fil4" d="M321.59 318.65c-6.57,-29.73 10.83,-33.64 12.28,-55.18 -5.06,5.91 -2.68,2.66 -5.59,7.47 -6.53,10.8 -20.57,37.44 -6.69,47.71z"/>
    <path class="fil9" d="M554.13 108.27c1.38,-2.06 1.54,-1.08 2.68,-5.38 1.23,-4.64 -0.02,-2.56 1.41,-7.73 1.91,-6.98 2.44,-5.8 2.59,-13.14 -2.34,-2.88 -3.32,-1.95 -4.9,-2.63 -1.66,4.12 -1.2,1.2 -1.92,6.73 -0.47,3.62 0.09,3.88 -0.57,7.68 -1.67,9.5 -3.98,7.54 0.71,14.47z"/>
    <path class="fil4" d="M520.01 361.86c0.85,-5.88 14.4,-15.01 16.41,-23.33l-7.08 4.41c0.26,0.52 0.17,0.02 -0.14,0.11 -7.99,2.23 0.63,0.32 -2.11,-1.96l-1.83 -1.33c-7.28,25.93 -16.14,12.45 -5.25,22.1z"/>
    <path class="fil10" d="M541.92 315.78c-2.02,-7.62 -3.14,-16.92 -3.59,-21.99 -4.96,-4.62 -4.19,6.07 -3.74,9.57 0.3,2.36 0.88,4.03 2.15,6.63 3.68,7.59 -1.7,4.9 5.18,5.79z"/>
   </g>
  </g>
 </g>
</svg>
