<?xml version="1.0" encoding="UTF-8"?>
<!DOCTYPE svg PUBLIC "-//W3C//DTD SVG 1.1//EN" "http://www.w3.org/Graphics/SVG/1.1/DTD/svg11.dtd">
<!-- Creator: CorelDRAW 2021 (64-Bit) -->
<svg xmlns="http://www.w3.org/2000/svg" xml:space="preserve" width="586px" height="681px" version="1.1" style="shape-rendering:geometricPrecision; text-rendering:geometricPrecision; image-rendering:optimizeQuality; fill-rule:evenodd; clip-rule:evenodd"
viewBox="0 0 586 681.47"
 xmlns:xlink="http://www.w3.org/1999/xlink"
 xmlns:xodm="http://www.corel.com/coreldraw/odm/2003">
 <defs>
  <style type="text/css">
   <![CDATA[
    .fil12 {fill:#9C1647}
    .fil7 {fill:#B27A8B}
    .fil5 {fill:#B8265A}
    .fil9 {fill:#BD7DA0}
    .fil4 {fill:#CAB5B9}
    .fil2 {fill:#DAC2C9}
    .fil6 {fill:#DCC6D1}
    .fil8 {fill:#E2B8CD}
    .fil1 {fill:#E4A1C5}
    .fil0 {fill:#FCEAF5}
    .fil11 {fill:#FDCBE4}
    .fil10 {fill:#FDF9F9}
    .fil13 {fill:#FECEEB}
    .fil3 {fill:#FED6E9}
   ]]>
  </style>
 </defs>
 <g id="Capa_x0020_1">
  <metadata id="CorelCorpID_0Corel-Layer"/>
  <g id="_2811482651504">
   <path class="fil0" d="M298.57 327.55c0.6,7.26 -7.66,2.76 -11,9.23 -12.09,23.37 -29.35,14.73 -41.1,39.34 -28.41,59.52 0.62,142.72 37.42,197.88 25.69,38.52 39.92,45.77 67.79,69.96 44.5,19.64 73.33,28.95 129.04,9.3 56.18,-10.56 95.53,-81.49 101.9,-112.76 18.59,-91.08 -48,-203.98 -141.93,-243.1 -47.19,-19.65 -90.87,-14.2 -137.38,10.78 -1.52,9.69 -5.52,10.51 -4.74,19.37z"/>
   <path class="fil1" d="M16.78 167.64c8.49,14.06 0.12,5.22 -1.46,27.41 -2.71,37.81 44.59,60.58 51.77,67.78 0.48,-0.99 1.46,-5.11 2.26,-4.81l3.44 -14.2c2.02,-5.36 -0.46,-7.01 3.88,-11.82 0.2,2.95 -11.69,45.84 30.09,73.48 34.38,22.75 60.7,-7.22 80.85,-18.04l5.17 -1.17c5.32,-12.42 7.28,-23.55 4.12,-37.12 9.57,-8.14 5.99,-7.86 16.98,-8.45l15.48 1.43c12.9,-0.21 23.25,-3.88 37.62,-15.57 19.14,-22.54 22.42,-25.38 23.65,-50.67 1.07,-22.21 -6.58,-37.98 -26.71,-54.9 0.32,-28.78 -9.87,-38.01 -13.89,-56.6 -12.02,-18.25 -25.98,-26.2 -42.09,-27.85 -4.49,17.14 -12.35,5.06 -24.15,-0.2 -6.17,-8.44 -11.89,-18.01 -19.28,-25.27 -9.55,-9.38 -12.62,-9.35 -21.82,-8.7 -18.34,10.81 -38.5,10.01 -38.5,10.01l-13.88 7.2c-17.92,14.94 -3.86,14.74 -33.6,16.65 -19.71,1.26 -38.81,16.05 -47.28,31.5 -25.74,46.94 8.7,71.34 7.35,99.91z"/>
   <path class="fil2" d="M223.16 565.46l34.19 46.36c14.5,19.48 22.86,21.78 25.67,24.81 9.17,-2.42 21.84,-1.22 33.23,-2.66 12.23,-1.54 24.36,-4.28 38.5,-5.12 -27.86,-24.19 -43.01,-30.84 -68.7,-69.36 -36.79,-55.16 -57.69,-128.05 -29.28,-187.57 11.75,-24.61 30.11,-10.06 42.2,-33.43 3.34,-6.47 2.79,-4.09 2.19,-11.34 -0.87,-0.04 -2.04,0.23 -2.59,0.4 -16.52,5.38 -4.72,10.58 -21.66,19.37 -8.96,4.65 -18.91,1.48 -32.5,3.78 -95.08,105.92 -19.93,202.79 -21.25,214.76z"/>
   <path class="fil3" d="M201.03 291.69c8.54,15.09 29.25,54.36 43.38,59.01 13.59,-2.3 23.54,0.87 32.5,-3.78 16.94,-8.79 5.14,-13.99 21.66,-19.37 0.55,-0.17 1.72,-0.44 2.59,-0.4 -0.78,-8.86 0.63,-9.28 2.15,-18.97 2.05,-15.93 -11.31,-39.04 -23.91,-57.92 -30.23,12.31 -57.83,8.99 -78.93,23.43 0.3,8.91 -0.76,7.26 0.56,18z"/>
   <path class="fil4" d="M490.24 650.1c-55.71,19.65 -90.99,-1.62 -135.49,-21.25 -14.14,0.84 -30.58,0.04 -42.81,1.59 -11.39,1.43 -19.75,3.77 -28.92,6.19 56.81,37.5 78.07,58.44 152.44,36.16 19.94,-5.98 48.58,-10.48 54.78,-22.69z"/>
   <path class="fil5" d="M240.17 667.99c4.31,-23.74 6.14,-8.09 10.5,-25.09l6.68 -31.08 -34.19 -46.36c-5.52,1.58 -3.34,1.14 -11.9,-0.31l3.77 5.75c-6.58,0.83 -12.71,1.63 -19.9,1.02 -13.11,-1.13 -9.22,-4.34 -21.12,1.68 10.55,9.95 19.29,13.75 29.76,14.09 -13.61,6.5 -30.95,3.03 -40.4,10.38 5.45,13.14 32.61,8.51 46.01,7.98l-38.75 29.86c8.44,7.7 -3.31,6.59 13.31,2.69 9.27,-2.17 23.8,-13.98 38.35,-14.59 -8.21,12.51 -8.74,14.72 -13.39,26.3 -4.76,11.83 -9.8,15.86 -6.21,26.84 17.08,-9.09 22.31,-30.62 36.6,-43.77l0.88 34.61z"/>
   <path class="fil6" d="M442.03 378.42c-9.03,-3.48 -0.17,-1.95 -12.3,-2.17 12.18,13.73 23.37,19.1 30.3,37.59 -13.56,2.26 -2.46,-3.62 -16.18,-1.63 9.44,23.2 27.2,4.46 52.55,68.73 8.52,21.61 53.89,56.18 10.88,69.9 -11.71,3.73 -28.19,-0.15 -36.25,-7.64 -16.93,-15.74 -9.75,-25.15 -7.9,-37.82 2.15,-14.73 -3.43,-27.46 -16.05,-40.57 -4.18,-4.34 -9.49,-8.36 -15.36,-11.26 -10.63,-5.25 -9.23,-4.5 -20.26,-2 12,10.32 12.98,6.15 22.03,16.14 -40.41,18.4 -62.95,-19.64 -71.75,-25.69 -2.11,6.15 -1.88,-0.92 -0.76,7.14 0.01,0.06 2.47,7.38 2.49,7.41 21.31,42.47 67.52,21.13 78.18,18.43 22.06,27.12 10.87,22.5 8.38,43.38 -3.43,28.72 30.66,55.02 64.53,39.19 47.52,-22.22 -7.88,-72.69 -7.89,-72.72 -8.08,-16.39 -1.56,-22.9 -19.13,-43.75 -26.46,-31.41 -7.18,-4.09 -21.24,-35.3 -4.63,-10.26 -14.26,-23.51 -24.27,-27.36z"/>
   <path class="fil7" d="M187.61 287.44c-20.15,10.82 -45.89,36.47 -80.27,13.72 -41.78,-27.64 -26.63,-72.79 -26.82,-75.75 -4.35,4.82 -8.17,9.83 -10.19,15.19l-4.79 17.03c-0.8,-0.3 -0.65,2.11 -1.13,3.1 -7.19,-7.2 -49.47,-30.71 -46.77,-68.52 1.59,-22.18 7.63,-10.51 -0.86,-24.57 -7.39,17.01 -7.8,15.71 -7.05,31.97 2.9,62.83 56.37,62.47 62.75,67.72 18.82,29.6 21.56,42.96 54.4,47.88 17.32,2.6 33.93,3.19 50.86,-11.23 7.24,-6.16 8.75,-10.88 9.87,-16.54z"/>
   <path class="fil8" d="M189.87 283.99c4.34,7.65 2.55,7.03 11.16,7.7 -1.32,-10.74 3,-7.53 2.7,-16.44 21.11,-14.44 45.44,-12.68 75.67,-24.99l-15.68 -18.1 2.62 -7.4c-14.37,11.69 -24.53,14.36 -37.43,14.57l-17.11 -0.92c-10.98,0.6 -5.33,2.6 -14.9,10.74 3.16,13.57 -1.72,22.41 -7.03,34.84z"/>
   <path class="fil9" d="M175.14 105.35l3.85 -2.86c20.65,-0.25 36.2,6.72 39.72,34.27 1.24,9.69 -3.97,44.93 -5.16,50.07 17.3,-10.33 20.48,-50.55 13.26,-68.54 -9.74,-24.28 -51.93,-39.68 -65.58,-17.19l11.57 3.77c0.5,0.13 1.58,0.24 2.34,0.48z"/>
   <path class="fil10" d="M262.95 586.84c0.19,-5.58 2.37,0.24 -1.92,-10.77 -1.98,-5.05 -4.89,-8.9 -7.77,-13.49 -24.75,-39.47 -13.96,-58.14 -33.92,-65.22 -1.99,10.94 2.78,34.25 7.93,47.3 9.56,24.26 18.13,29.64 35.68,42.18z"/>
   <path class="fil9" d="M77.01 99.65c13.33,-16.83 29.79,-59.44 87.33,-23.27 1.04,0.65 4.92,3.18 5.95,3.61 11.91,4.93 1.62,1.71 10.31,2.23 -28.69,-39.46 -85.2,-35.55 -103.99,1.38 -5.39,10.6 -5.46,7.82 0.4,16.05z"/>
   <path class="fil11" d="M142.69 2.37c-13.03,-4.12 -24.72,-1.47 -38.5,10.01l-5.65 5.63c13.94,4.9 38.4,-2.04 52.75,-7.95l-8.6 -7.69z"/>
   <path class="fil11" d="M207.94 36.54c-9.2,0.12 -15.78,-2.13 -24.15,-0.2 -12.38,3.67 -15.77,2.17 -20.11,14.96l56.86 -3.93 -12.6 -10.83z"/>
   <path class="fil12" d="M240.17 667.99l1.78 11.81c12.53,-20.23 6.01,-29.99 20.24,-52.64l4.36 21.32 5.96 -12.12c-1.81,-14.42 -1.31,-11.73 -15.16,-24.54l-6.68 31.08c-4.36,17 -6.19,1.35 -10.5,25.09z"/>
   <path class="fil7" d="M265.2 106c0.07,-0.63 -0.66,-12.28 -0.96,-13.79 -1.98,-9.88 -7.9,-21.84 -14.21,-27.82 3.97,22.5 13.75,45.72 2.26,65.98 -1.55,2.73 -2.13,2.7 -2.74,4.01l-1.95 7.68c8.74,-5.91 13.21,-11.46 15.66,-16.71 0.76,-1.63 1.7,-17.07 1.94,-19.35z"/>
   <path class="fil11" d="M178.99 102.49l-3.85 2.86 -13.02 6.26c9.55,7.32 7.32,0.62 20.74,5.59 14.52,5.37 10.05,5.83 24.36,4.83 -10.9,-14.24 -6.09,-9.75 -22.17,-16.26l-6.06 -3.28z"/>
   <path class="fil13" d="M180.7 275.17c5.5,-8.46 7.32,-12.13 3.49,-23.1 -4.88,-14 -8.47,-16.81 -19.03,-17.19l15.54 40.29z"/>
   <path class="fil13" d="M45.97 187.77c2.08,-0.71 12.32,-0.81 16.21,-15.63 2.03,-7.76 1.86,-1.66 -0.55,-9.15 -14.57,6.71 -22.18,11.62 -15.66,24.78z"/>
  </g>
 </g>
</svg>
